<svg width="64" height="64" viewBox="0 0 64 64" fill="none" xmlns="http://www.w3.org/2000/svg">
<path d="M27.1765 43.0956C27.1765 43.4158 27.1136 43.7132 26.9877 43.9877C26.8734 44.2623 26.7132 44.5025 26.5074 44.7083C26.3129 44.9028 26.0784 45.0572 25.8039 45.1716C25.5294 45.2859 25.2377 45.3431 24.9289 45.3431C24.6544 45.3431 24.3742 45.2917 24.0882 45.1887C23.8137 45.0858 23.5678 44.9199 23.3505 44.6912L7.05147 27.6716V45H2.59069V22.3015C2.59069 21.844 2.7165 21.4322 2.96814 21.0662C3.23121 20.6887 3.56291 20.4085 3.96324 20.2255C4.38644 20.0539 4.82108 20.0139 5.26716 20.1054C5.71324 20.1855 6.09641 20.3913 6.41667 20.723L22.7157 37.7255V20.3971H27.1765V43.0956ZM61.0098 45H56.5147V30.348L48.6054 44.2623C48.411 44.6168 48.1364 44.8856 47.7819 45.0686C47.4387 45.2516 47.067 45.3431 46.6667 45.3431C46.2778 45.3431 45.9118 45.2516 45.5686 45.0686C45.2369 44.8856 44.9739 44.6168 44.7794 44.2623L36.8358 30.348V45H32.375V22.3015C32.375 21.7868 32.5237 21.3292 32.8211 20.9289C33.1299 20.5286 33.5302 20.2598 34.0221 20.1225C34.2623 20.0654 34.5025 20.0482 34.7426 20.0711C34.9828 20.0825 35.2116 20.134 35.4289 20.2255C35.6577 20.3056 35.8636 20.4257 36.0466 20.5858C36.2296 20.7345 36.384 20.9175 36.5098 21.1348L46.6667 38.7892L56.8235 21.1348C57.0866 20.7002 57.4469 20.3913 57.9044 20.2083C58.3734 20.0253 58.8595 19.9967 59.3627 20.1225C59.8431 20.2598 60.2377 20.5286 60.5466 20.9289C60.8554 21.3292 61.0098 21.7868 61.0098 22.3015V45Z" fill="white"/>
</svg>
